<?xml version="1.0" encoding="iso-8859-1"?>
<!-- Generator: Adobe Illustrator 19.0.0, SVG Export Plug-In . SVG Version: 6.00 Build 0)  -->
<svg version="1.1" id="Capa_1" xmlns="http://www.w3.org/2000/svg" xmlns:xlink="http://www.w3.org/1999/xlink" x="0px" y="0px"
	 viewBox="0 0 512 512" style="enable-background:new 0 0 512 512;" xml:space="preserve">
<g>
	<g>
		<path d="M504.5,101.5H122V64c0-3.033-1.827-5.768-4.63-6.929c-2.801-1.16-6.028-0.519-8.173,1.626l-107,107
			c-2.929,2.929-2.929,7.677,0,10.606l107,107c1.435,1.435,3.353,2.197,5.305,2.197c0.966,0,1.941-0.187,2.869-0.571
			c2.803-1.161,4.63-3.896,4.63-6.929v-37.5h22.5c4.142,0,7.5-3.358,7.5-7.5c0-4.142-3.358-7.5-7.5-7.5h-30
			c-4.142,0-7.5,3.358-7.5,7.5v26.893L18.107,171L107,82.107V109c0,4.142,3.358,7.5,7.5,7.5H497v109H174.5
			c-4.142,0-7.5,3.358-7.5,7.5c0,4.142,3.358,7.5,7.5,7.5h330c4.143,0,7.5-3.358,7.5-7.5V109C512,104.858,508.643,101.5,504.5,101.5
			z"/>
	</g>
</g>
<g>
	<g>
		<path d="M384.5,410.5c-4.143,0-7.5,3.358-7.5,7.5c0,12.406-10.094,22.5-22.5,22.5S332,430.407,332,418v-80
			c0-12.406,10.094-22.5,22.5-22.5S377,325.594,377,338c0,4.142,3.357,7.5,7.5,7.5s7.5-3.358,7.5-7.5
			c0-20.677-16.822-37.5-37.5-37.5c-20.678,0-37.5,16.823-37.5,37.5v80c0,20.677,16.822,37.5,37.5,37.5
			c20.678,0,37.5-16.822,37.5-37.5C392,413.858,388.643,410.5,384.5,410.5z"/>
	</g>
</g>
<g>
	<g>
		<path d="M482,348v-40c0-4.142-3.357-7.5-7.5-7.5s-7.5,3.358-7.5,7.5v40c0,12.406-10.094,22.5-22.5,22.5H422V308
			c0-4.142-3.357-7.5-7.5-7.5s-7.5,3.358-7.5,7.5v140c0,4.142,3.357,7.5,7.5,7.5s7.5-3.358,7.5-7.5v-62.5h22.5
			c12.406,0,22.5,10.094,22.5,22.5v40c0,4.142,3.357,7.5,7.5,7.5s7.5-3.358,7.5-7.5v-40c0-12.254-5.909-23.153-15.026-30
			C476.091,371.153,482,360.254,482,348z"/>
	</g>
</g>
<g>
	<g>
		<path d="M264.5,300.5c-20.678,0-37.5,16.823-37.5,37.5v110c0,4.142,3.358,7.5,7.5,7.5c4.142,0,7.5-3.358,7.5-7.5v-62.5h45V448
			c0,4.142,3.357,7.5,7.5,7.5s7.5-3.358,7.5-7.5V338C302,317.323,285.178,300.5,264.5,300.5z M287,370.5h-45V338
			c0-12.406,10.093-22.5,22.5-22.5c12.406,0,22.5,10.094,22.5,22.5V370.5z"/>
	</g>
</g>
<g>
	<g>
		<path d="M212,348v-10c0-20.677-16.822-37.5-37.5-37.5h-30c-4.142,0-7.5,3.358-7.5,7.5v140c0,4.142,3.358,7.5,7.5,7.5h30
			c20.678,0,37.5-16.823,37.5-37.5v-10c0-12.253-5.907-23.153-15.023-30C206.093,371.153,212,360.253,212,348z M197,408v10
			c0,12.406-10.093,22.5-22.5,22.5H152v-55h22.5C186.907,385.5,197,395.594,197,408z M197,348c0,12.406-10.093,22.5-22.5,22.5H152
			v-55h22.5c12.407,0,22.5,10.094,22.5,22.5V348z"/>
	</g>
</g>
<g>
</g>
<g>
</g>
<g>
</g>
<g>
</g>
<g>
</g>
<g>
</g>
<g>
</g>
<g>
</g>
<g>
</g>
<g>
</g>
<g>
</g>
<g>
</g>
<g>
</g>
<g>
</g>
<g>
</g>
</svg>
